<svg xmlns="http://www.w3.org/2000/svg" width="23.963" height="18.236" viewBox="0 0 23.963 18.236"><defs><style>.a{fill:#4e567a;}</style></defs><g transform="translate(0 0)"><path class="a" d="M21.037,57.75H2.93A2.933,2.933,0,0,0,0,60.68V73.056a2.933,2.933,0,0,0,2.93,2.93h18.1a2.933,2.933,0,0,0,2.93-2.93V60.685A2.93,2.93,0,0,0,21.037,57.75Zm1.592,15.306a1.593,1.593,0,0,1-1.592,1.592H2.93a1.593,1.593,0,0,1-1.592-1.592V60.685A1.593,1.593,0,0,1,2.93,59.094h18.1a1.593,1.593,0,0,1,1.592,1.592V73.056Z" transform="translate(0 -57.75)"/><path class="a" d="M68.1,115.331l5.861-5.256a.671.671,0,0,0-.9-1l-8.082,7.254-1.577-1.408s-.01-.01-.01-.015a.992.992,0,0,0-.109-.094l-6.416-5.742a.671.671,0,1,0-.892,1l5.93,5.3L56,120.9a.672.672,0,0,0-.03.947.685.685,0,0,0,.491.213.671.671,0,0,0,.456-.178l5.994-5.608,1.626,1.453a.668.668,0,0,0,.892,0l1.671-1.5,5.96,5.662a.671.671,0,0,0,.947-.025.672.672,0,0,0-.025-.947Z" transform="translate(-52.988 -106.366)"/></g></svg>